<svg width="21" height="17" viewBox="0 0 21 17" fill="none" xmlns="http://www.w3.org/2000/svg">
<path id="Vector" d="M0.476561 8.25315C0.476561 7.95012 0.602984 7.6595 0.828017 7.44523C1.05305 7.23095 1.35826 7.11057 1.6765 7.11057L16.3758 7.11058L11.2241 2.20608C10.9986 1.99143 10.872 1.70031 10.872 1.39676C10.872 1.0932 10.9986 0.802077 11.2241 0.587432C11.4495 0.372786 11.7552 0.252198 12.074 0.252198C12.3928 0.252198 12.6986 0.372786 12.924 0.587432L20.1236 7.44288C20.2355 7.54902 20.3243 7.67516 20.3848 7.81404C20.4454 7.95292 20.4766 8.10182 20.4766 8.2522C20.4766 8.40258 20.4454 8.55148 20.3848 8.69036C20.3243 8.82924 20.2355 8.95537 20.1236 9.06152L12.924 15.917C12.8124 16.0232 12.6798 16.1076 12.534 16.1651C12.3882 16.2226 12.2319 16.2522 12.074 16.2522C11.9162 16.2522 11.7599 16.2226 11.614 16.1651C11.4682 16.1076 11.3357 16.0232 11.2241 15.917C11.1124 15.8107 11.0239 15.6845 10.9635 15.5456C10.9031 15.4068 10.872 15.2579 10.872 15.1076C10.872 14.9573 10.9031 14.8085 10.9635 14.6696C11.0239 14.5308 11.1124 14.4046 11.2241 14.2983L16.3758 9.39572L1.6765 9.39572C1.35826 9.39572 1.05305 9.27535 0.828017 9.06107C0.602984 8.8468 0.476561 8.55618 0.476561 8.25315Z" fill="white"/>
</svg>
