<svg width="20" height="16" viewBox="0 0 20 16" fill="none" xmlns="http://www.w3.org/2000/svg">
<path id="Vector" d="M-1.20805e-06 8.00095C-1.18156e-06 7.69792 0.126422 7.4073 0.351455 7.19303C0.576487 6.97876 0.881698 6.85838 1.19994 6.85838L15.8992 6.85838L10.7475 1.95388C10.5221 1.73924 10.3954 1.44811 10.3954 1.14456C10.3954 0.841003 10.5221 0.54988 10.7475 0.335235C10.9729 0.120588 11.2787 1.1449e-06 11.5975 1.17277e-06C11.9162 1.20064e-06 12.222 0.120589 12.4474 0.335235L19.6471 7.19068C19.7589 7.29683 19.8477 7.42296 19.9083 7.56184C19.9688 7.70072 20 7.84962 20 8C20 8.15038 19.9688 8.29928 19.9083 8.43816C19.8477 8.57704 19.7589 8.70318 19.6471 8.80932L12.4474 15.6648C12.3358 15.771 12.2033 15.8554 12.0574 15.9129C11.9116 15.9704 11.7553 16 11.5975 16C11.4396 16 11.2833 15.9704 11.1375 15.9129C10.9916 15.8554 10.8591 15.771 10.7475 15.6648C10.6359 15.5585 10.5473 15.4323 10.4869 15.2934C10.4265 15.1546 10.3954 15.0057 10.3954 14.8554C10.3954 14.7051 10.4265 14.5563 10.4869 14.4174C10.5473 14.2786 10.6359 14.1524 10.7475 14.0461L15.8992 9.14353L1.19994 9.14353C0.881697 9.14353 0.576487 9.02315 0.351454 8.80887C0.126422 8.5946 -1.23454e-06 8.30398 -1.20805e-06 8.00095Z" fill="#F4AF1C"/>
</svg>
