<svg width="38" height="33" viewBox="0 0 38 33" fill="none" xmlns="http://www.w3.org/2000/svg">
<path id="Vector" d="M31.3513 0C33.5569 0 35.7625 0 38 0V26.3001C37.1541 27.5286 36.0083 27.9541 34.5081 27.9125C32.8323 27.8677 31.1374 27.9957 29.4713 28.2164C25.9442 28.6835 22.5161 29.4225 20.0807 32.4105C19.353 33.3062 18.5167 33.1175 17.8241 32.2729C16.209 30.3054 14.0608 29.2049 11.6254 28.8082C8.93785 28.37 6.21516 28.0692 3.49248 27.9093C0.840023 27.7525 0.0356674 27.0647 0.0356674 24.3806C0.0292837 17.5313 0.0707782 10.6787 0.000556653 3.82937C-0.0154028 2.24899 0.306978 0.96294 1.59331 0C3.28182 0 4.97033 0 6.65884 0C7.00037 0.102372 7.33552 0.265528 7.68663 0.300719C12.0116 0.761395 16.0749 1.79152 18.938 5.42894C22.497 2.19141 24.2461 1.27646 27.987 0.636628C29.1106 0.44468 30.2309 0.214342 31.3513 0ZM2.70728 2.57531V25.1644C5.35655 25.4108 7.90687 25.4459 10.371 25.9322C12.8543 26.4217 15.2514 27.3558 17.7443 28.114C17.7443 27.8133 17.7443 27.3014 17.7443 26.7864C17.7443 21.4022 17.69 16.0149 17.7666 10.6307C17.8049 7.87308 16.5377 5.99518 14.2491 4.74432C10.6615 2.78325 6.70672 2.75766 2.70728 2.57531ZM35.3539 25.302V2.5849C31.5205 2.71287 27.786 2.80564 24.3323 4.4532C21.7086 5.70406 20.1956 7.68113 20.2499 10.7875C20.3425 16.2164 20.2722 21.6454 20.2786 27.0775C20.2786 27.5126 20.3425 27.9445 20.3872 28.5203C25.0697 25.5739 30.1831 25.4363 35.3571 25.2988L35.3539 25.302Z" fill="#515050"/>
</svg>
