<svg width="38" height="39" viewBox="0 0 38 39" fill="none" xmlns="http://www.w3.org/2000/svg">
<path id="image 50 (Traced)" fill-rule="evenodd" clip-rule="evenodd" d="M17.5097 0.0397824C14.2248 0.322463 11.0767 1.45311 8.41931 3.30449C7.20388 4.15131 6.62413 4.6506 5.49208 5.82583C3.29977 8.10177 1.83747 10.5766 0.88037 13.6306C0.257333 15.6187 0.00294041 17.3344 3.94455e-05 19.567C-0.00196891 21.2037 0.0721172 22.0107 0.359313 23.4804C1.89154 31.3208 7.86924 37.4056 15.5021 38.8944L16.0174 38.9949V32.1393V25.2836H13.5999H11.1824V22.4445V19.6054H13.5999H16.0174V16.8949C16.0174 13.8478 16.0761 13.2618 16.5059 12.0182C17.3317 9.62935 19.2139 8.10031 21.8113 7.70852C22.6249 7.58582 25.091 7.65158 26.4497 7.83213L27.4725 7.9681V10.3993V12.8304L25.8918 12.8717C24.5301 12.9073 24.2447 12.9363 23.8315 13.0808C23.233 13.2901 22.8826 13.5468 22.5361 14.0298C22.0659 14.6855 22.0261 14.9297 21.9867 17.3994L21.9516 19.6054H24.6004C26.9273 19.6054 27.2493 19.6197 27.2493 19.7227C27.2493 19.8495 26.5315 24.7247 26.4617 25.0726L26.4193 25.2836H24.1937H21.9681V32.1418V39L22.3214 38.9283C25.787 38.2254 28.5709 36.8853 31.1662 34.6709C36.7537 29.9034 39.1993 22.169 37.4354 14.844C35.5667 7.08415 29.1838 1.19452 21.5218 0.160405C20.4225 0.0120822 18.5025 -0.0456969 17.5097 0.0397824Z" fill="#646464" fill-opacity="0.68"/>
</svg>
