<svg width="43" height="47" viewBox="0 0 43 47" fill="none" xmlns="http://www.w3.org/2000/svg">
<path d="M42.9478 15.0232C42.7801 12.4021 41.5316 10.366 39.3067 9.04801C34.6481 6.28252 29.915 3.6429 25.2266 0.92183C24.511 0.507192 23.583 0.647873 22.9793 0H19.2897C15.9317 1.94362 12.5738 3.89094 9.2122 5.83456C7.51648 6.81192 5.80584 7.75967 4.12503 8.75924C1.57585 10.266 0.0552845 12.4466 0.0329233 15.4564C-0.00807228 20.7727 -0.00807228 26.0889 0.0180158 31.4052C0.0329233 34.4076 1.4715 36.6622 4.02813 38.1579C8.51155 40.7827 13.0322 43.3482 17.5529 45.9064C20.3071 47.465 23.065 47.3058 25.7707 45.7583C30.0715 43.3038 34.3648 40.8345 38.6582 38.3689C41.2745 36.8621 42.8621 34.6964 43 31.6125C42.9814 26.0852 42.9665 20.5542 42.9478 15.0269V15.0232ZM39.2359 23.6677C39.2359 26.1148 39.1949 28.5619 39.247 31.0053C39.2843 32.7713 38.5613 34.0596 37.0482 34.9259C32.5946 37.4878 28.1298 40.0348 23.6762 42.6041C22.2153 43.4482 20.7879 43.4482 19.3269 42.6041C14.8733 40.0385 10.4123 37.4878 5.95492 34.9296C4.44554 34.0596 3.73743 32.7787 3.75234 31.009C3.79333 25.9927 3.79333 20.98 3.75234 15.9636C3.73743 14.1125 4.53498 12.8464 6.10772 11.9468C10.4644 9.45894 14.8137 6.9563 19.1518 4.43885C20.732 3.52073 22.26 3.51702 23.8402 4.43885C28.1782 6.9563 32.5275 9.46265 36.8879 11.9468C38.5427 12.8871 39.3067 14.2347 39.2508 16.1487C39.18 18.655 39.2321 21.1614 39.2321 23.6714L39.2359 23.6677Z" fill="#BA427F"/>
<path d="M19.435 21.7648C17.4076 20.0026 15.3205 18.307 13.2633 16.5707C12.3055 15.76 11.2881 15.449 10.3601 16.493C9.35755 17.6184 9.87559 18.618 10.8707 19.4658C12.1266 20.5357 13.3863 21.5982 14.6423 22.6681C14.9143 22.8977 15.1752 23.1383 15.3914 23.3345C15.3839 23.8898 14.9702 24.0194 14.7168 24.2416C13.4757 25.3263 12.2123 26.3888 10.9489 27.4476C9.95758 28.2769 9.34264 29.2505 10.2967 30.413C11.2471 31.5718 12.3204 31.2164 13.3304 30.3575C15.3317 28.6582 17.3666 26.9959 19.3567 25.2781C20.7879 24.0416 20.8214 22.9717 19.435 21.7685V21.7648Z" fill="#BA427F"/>
<path d="M30.992 27.3995C28.4205 27.3995 25.8489 27.3847 23.2774 27.4069C22.1109 27.418 21.1866 27.8881 21.168 29.1802C21.1456 30.5352 22.0438 31.1127 23.3072 31.1534C24.593 31.1904 25.8788 31.1608 27.1645 31.1608C28.4503 31.1608 29.7361 31.1793 31.0218 31.1571C32.3225 31.1349 33.2021 30.4389 33.1573 29.1654C33.1126 27.9807 32.207 27.3995 30.9958 27.3995H30.992Z" fill="#BA427F"/>
</svg>
