<svg width="38" height="38" viewBox="0 0 38 38" fill="none" xmlns="http://www.w3.org/2000/svg">
<path id="image 53 (Traced)" fill-rule="evenodd" clip-rule="evenodd" d="M17.1962 0.0461371C11.2506 0.664406 6.03975 3.90017 2.87433 8.93972C-1.61373 16.0851 -0.776098 25.5222 4.89808 31.7388C8.03831 35.1793 11.9656 37.2361 16.6752 37.907C17.5544 38.0322 20.4764 38.0306 21.3944 37.9044C25.6957 37.313 29.5478 35.4053 32.4776 32.4157C33.4391 31.4346 33.644 31.1999 34.2818 30.3494C36.1823 27.8145 37.4266 24.7243 37.9068 21.347C38.0311 20.4721 38.0311 17.5366 37.9067 16.6621C37.5864 14.4107 37.004 12.4924 36.0697 10.6111C35.0797 8.6178 34.0639 7.19676 32.4826 5.59338C29.5493 2.61901 25.8767 0.771343 21.6545 0.145786C20.7428 0.010665 18.1042 -0.0482319 17.1962 0.0461371ZM12.2904 8.26613C12.8169 8.45092 13.4479 9.095 13.6318 9.63533C14.0616 10.8986 13.4759 12.2333 12.2986 12.6741C10.9112 13.1935 9.49509 12.7621 8.86777 11.629C8.66637 11.265 8.64883 11.174 8.64883 10.4898C8.64883 9.86564 8.67514 9.69698 8.81248 9.44005C9.16192 8.78653 9.67605 8.37254 10.39 8.16982C10.8278 8.04556 11.8027 8.09494 12.2904 8.26613ZM26.4108 14.6578C27.1642 14.8625 27.9933 15.3421 28.5289 15.883C29.1017 16.4616 29.4441 17.0156 29.7319 17.8295C30.145 18.9974 30.1639 19.2769 30.1639 24.2198V28.7463H27.86H25.5562L25.5549 24.6749C25.5539 21.4611 25.5316 20.4993 25.4489 20.1093C25.2573 19.2046 24.895 18.6824 24.2336 18.358C23.6444 18.069 22.8138 18.0634 22.2119 18.3443C21.6762 18.5944 21.23 19.0532 20.9305 19.6616L20.6883 20.1538L20.6644 24.4501L20.6405 28.7463H18.342H16.0435V21.7561V14.7658H18.3473H20.6512L20.6536 15.7511L20.6559 16.7364L20.8442 16.5133C20.9478 16.3906 21.1632 16.1344 21.3231 15.9439C21.8618 15.3019 22.9359 14.7144 23.8854 14.5426C24.4112 14.4475 25.8838 14.5146 26.4108 14.6578ZM13.4984 21.7746L13.5174 28.7463H11.176H8.83462V21.8057C8.83462 17.9882 8.85736 14.8421 8.88523 14.8142C8.91303 14.7864 9.95816 14.7725 11.2077 14.7833L13.4795 14.8029L13.4984 21.7746Z" fill="#646464" fill-opacity="0.68"/>
</svg>
