<svg xmlns="http://www.w3.org/2000/svg" version="1.1" xmlns:xlink="http://www.w3.org/1999/xlink" width="512" height="512" x="0" y="0" viewBox="0 0 24 24" style="enable-background:new 0 0 512 512" xml:space="preserve" fill-rule="evenodd" class=""><g><path d="M5.383 14.58A5.113 5.113 0 0 1 1.25 9.564c0-2.82 2.289-5.109 5.109-5.109s5.109 2.289 5.109 5.109c0 3.758-1.266 6.092-2.752 7.551-2.275 2.234-5.124 2.428-5.124 2.428a.749.749 0 0 1-.665-1.182s1.354-1.906 2.198-3.316c.088-.148.177-.311.258-.465zM16.665 14.58a5.113 5.113 0 0 1-4.133-5.016c0-2.82 2.289-5.109 5.109-5.109s5.109 2.289 5.109 5.109c0 3.758-1.266 6.092-2.752 7.551-2.275 2.234-5.124 2.428-5.124 2.428a.749.749 0 0 1-.665-1.182s1.354-1.906 2.198-3.316c.088-.148.177-.311.258-.465z" fill="#ba427f" opacity="1" data-original="#000000" class=""></path></g></svg>