<svg xmlns="http://www.w3.org/2000/svg" version="1.1" xmlns:xlink="http://www.w3.org/1999/xlink" width="512" height="512" x="0" y="0" viewBox="0 0 24 24" style="enable-background:new 0 0 512 512" xml:space="preserve" fill-rule="evenodd" class=""><g><path d="M11.5 18.25h8a.75.75 0 0 0 .75-.75V3c0-.464-.184-.909-.513-1.237A1.746 1.746 0 0 0 18.5 1.25h-12c-.729 0-1.429.29-1.945.805A2.755 2.755 0 0 0 3.75 4v15.5a.75.75 0 0 0 1.5 0V4A1.252 1.252 0 0 1 6.5 2.75h12a.25.25 0 0 1 .25.25v13.75H11.5a.75.75 0 0 0 0 1.5z" fill="#2d2f31" opacity="1" data-original="#000000" class=""></path><path d="M11.5 16.75H6.75a3 3 0 1 0 0 6H18.5c.464 0 .909-.184 1.237-.513.329-.328.513-.773.513-1.237v-1.5a.75.75 0 0 0-1.5 0V21a.25.25 0 0 1-.25.25H6.75a1.503 1.503 0 0 1-1.5-1.5 1.5 1.5 0 0 1 1.5-1.5h4.75a.75.75 0 0 0 0-1.5zM8.5 6.75h7a.75.75 0 0 0 0-1.5h-7a.75.75 0 0 0 0 1.5z" fill="#2d2f31" opacity="1" data-original="#000000" class=""></path></g></svg>