<svg width="77" height="77" viewBox="0 0 77 77" fill="none" xmlns="http://www.w3.org/2000/svg">
<g id="Vector">
<path d="M72.4873 19.3562C60.0484 19.1684 47.6095 19.2592 35.1707 19.2411C32.3464 19.2411 31.0284 20.6708 30.6215 23.3667C30.1599 26.4079 32.1399 27.0077 34.5268 27.6801C34.6544 26.1353 34.7698 24.7964 34.8791 23.4455H72.7849V53.5123H34.8548C34.62 50.2894 33.2129 48.7465 30.6336 48.8839C30.6336 49.7684 30.6336 50.665 30.6336 51.5555C30.6336 56.6989 31.6358 57.7228 36.7194 57.7288C41.0925 57.7288 45.4594 57.7288 50.3609 57.7288C47.1176 63.1509 44.1961 68.1247 41.1654 73.0319C40.2543 74.5161 40.0174 75.7581 41.4387 76.9939H43.2486C45.9089 72.7411 48.5692 68.4822 51.2294 64.2293C51.4177 64.2596 51.6121 64.2959 51.8004 64.3262C51.8004 67.2523 51.691 70.1785 51.8489 73.0985C51.9218 74.4131 52.5231 75.6975 52.8875 76.9939H54.6975C55.0862 75.8186 55.7482 74.6555 55.809 73.462C55.9669 70.4026 55.8636 67.3251 56.4163 64.0294C59.0584 68.3549 61.7004 72.6744 64.3425 77H66.7537C66.5776 75.5339 66.8145 73.8376 66.1585 72.6381C63.4739 67.7552 60.51 63.0298 57.3456 57.7349C62.4475 57.7349 67.0149 57.6259 71.5701 57.7773C73.8903 57.8561 75.6699 57.22 77 55.3358V21.6401C75.4937 20.8404 73.9996 19.3743 72.4812 19.3501L72.4873 19.3562Z" fill="#515050"/>
<path d="M42.2829 41.7655C42.3862 39.6814 43.3276 39.0817 45.0221 38.6152C51.5817 36.8038 58.1413 34.9924 64.634 32.975C65.6848 32.6479 67.2396 31.1697 67.1303 30.4245C66.8388 28.3587 65.0956 28.8312 63.565 29.2674C56.7382 31.2242 49.9114 33.187 43.0482 35.0227C42.0217 35.2953 40.6734 35.1741 39.7077 34.7198C35.1767 32.5933 30.7612 30.2306 26.2363 28.0921C24.9244 27.4681 23.3938 27.0501 21.9483 27.0016C17.4355 26.8623 12.9167 27.0016 8.39792 26.935C5.46434 26.8926 3.98844 28.3162 3.50862 31.1091C2.52468 36.822 1.44357 42.5167 0.459636 48.2296C-0.627551 54.5483 -0.1781 55.1723 6.17496 56.2264C6.50901 60.7277 6.82484 65.3016 7.18926 69.8755C7.40184 72.5412 7.29858 75.3643 10.0985 76.9939H20.9461C21.6993 75.5339 22.7743 74.1466 23.1266 72.5957C23.6611 70.2754 23.661 67.8339 23.9283 65.447C24.7482 58.1226 25.5864 50.7983 26.4306 43.4012C29.9412 44.2493 33.1481 45.0308 36.3611 45.7942C40.1146 46.6908 42.1007 45.5094 42.2768 41.7594L42.2829 41.7655ZM22.9808 38.4516C21.681 49.9562 20.4056 61.2426 19.0997 72.7774H11.4955C11.0278 67.216 10.4994 61.6727 10.1107 56.1113C9.81916 51.9311 9.89812 51.9311 5.83483 51.8342C5.34286 51.8221 4.85697 51.7736 3.91555 51.713C4.61402 47.5935 5.28213 43.6193 5.97453 39.6451C6.22962 38.173 6.56975 36.7069 6.86128 35.2408C7.49699 32.0461 9.62075 30.6466 13.2326 31.0424C13.2326 33.8353 13.2326 36.6887 13.2326 39.5482C13.2326 40.3479 12.9896 41.2748 13.3054 41.923C13.767 42.862 14.6356 43.6011 15.328 44.4311C15.9839 43.5769 17.144 42.7469 17.1987 41.8563C17.4173 38.2881 17.2898 34.7016 17.2898 30.1943C20.3934 30.9213 23.1326 31.2363 25.5985 32.2238C29.1152 33.6414 32.3707 35.6951 35.8509 37.2036C38.2257 38.2335 39.1003 39.6027 38.0739 42.1835C32.9659 40.9173 28.1252 39.7239 22.9808 38.4516Z" fill="#515050"/>
<path d="M15.1883 23.1062C21.5596 23.1728 26.9469 17.8295 26.9165 11.4744C26.8862 5.21025 21.6871 0.0365368 15.3887 0.000187537C8.92633 -0.0361617 3.58757 5.2163 3.63009 11.5774C3.66653 17.7992 8.92633 23.0395 15.1944 23.1062H15.1883ZM15.2369 3.99255C19.3427 3.96831 22.75 7.22763 22.8472 11.2685C22.9504 15.4244 19.5674 19.0714 15.492 19.2108C11.5441 19.344 7.74196 15.6849 7.66908 11.6804C7.5962 7.57901 11.1007 4.01678 15.2369 3.99255Z" fill="#515050"/>
</g>
</svg>
