<svg width="38" height="38" viewBox="0 0 38 38" fill="none" xmlns="http://www.w3.org/2000/svg">
<path id="image 51 (Traced)" fill-rule="evenodd" clip-rule="evenodd" d="M17.5889 0.0357583C14.8333 0.299811 12.7387 0.885986 10.4496 2.03383C8.631 2.94569 7.15182 4.02797 5.59006 5.58934C3.91986 7.25927 2.87197 8.72568 1.87296 10.7913C0.701934 13.2124 0.110145 15.6216 0.0124789 18.3654C-0.100264 21.5323 0.55109 24.5464 1.96038 27.3795C2.95315 29.3753 3.97319 30.7872 5.59006 32.4038C7.22476 34.0381 8.64332 35.0587 10.6445 36.0402C12.0409 36.725 12.9425 37.0584 14.3581 37.4134C18.0727 38.3449 21.7981 38.1663 25.4273 36.8827C26.5274 36.4937 28.4477 35.5314 29.435 34.8746C32.1458 33.0711 34.386 30.5811 35.8692 27.7226C37.2112 25.1363 37.8827 22.5702 37.9875 19.6277C38.1003 16.4608 37.4489 13.4468 36.0396 10.6136C35.1142 8.7533 34.084 7.29529 32.6375 5.79881C31.0335 4.1392 29.4601 2.99418 27.3554 1.95445C25.1555 0.867719 23.1057 0.287634 20.6711 0.0627131C19.9144 -0.00716145 18.1942 -0.0222354 17.5889 0.0357583ZM24.4833 10.5746C25.0494 10.7644 25.621 11.0925 26.0662 11.4833L26.3262 11.7116L26.8408 11.5781C27.4597 11.4175 28.2789 11.0978 28.7109 10.8482C28.8857 10.7472 29.0265 10.703 29.0265 10.7492C29.0265 10.9102 28.5906 11.6939 28.2887 12.0757C28.1211 12.2878 27.8163 12.5865 27.6115 12.7393C27.4066 12.8922 27.2716 13.0282 27.3115 13.0415C27.4276 13.0802 28.8816 12.7105 29.2715 12.5431L29.6278 12.39L29.4943 12.6205C29.3079 12.9422 28.1351 14.1727 27.7812 14.4179L27.488 14.6211L27.4442 15.7506C27.3725 17.5998 26.9659 19.1437 26.0906 20.8901C24.312 24.4387 21.1327 26.8248 17.3421 27.4558C14.5337 27.9233 11.9847 27.5624 9.53049 26.3498C8.19146 25.6883 8.19065 25.7183 9.54854 25.7072C10.5419 25.6991 10.8264 25.6693 11.4307 25.5104C12.6284 25.1953 13.7347 24.6901 14.532 24.0941L14.7803 23.9086L14.4206 23.8622C13.8879 23.7933 13.1495 23.5462 12.687 23.2819C12.134 22.966 11.3639 22.1756 11.08 21.6326C10.6676 20.8439 10.638 20.8901 11.5553 20.8901C12.6389 20.8901 12.7928 20.8189 12.1661 20.6073C11.9011 20.5178 11.5172 20.3473 11.313 20.2283C10.7922 19.9251 10.021 19.1176 9.73288 18.5739C9.47092 18.0796 9.19627 17.1266 9.19627 16.7119C9.19627 16.4959 9.21655 16.4649 9.32624 16.5132C9.69418 16.6753 10.4615 16.9049 10.7601 16.9424L11.0985 16.9849L10.536 16.4128C9.63811 15.4997 9.24314 14.5371 9.25004 13.2789C9.25383 12.5856 9.3379 12.1897 9.61293 11.5704L9.79459 11.1614L10.7395 12.0929C12.5136 13.842 14.6382 14.9931 16.9576 15.462C17.5464 15.581 18.7599 15.7219 18.8053 15.6765C18.8183 15.6635 18.7996 15.4779 18.7638 15.2641C18.6295 14.4619 18.8752 13.2757 19.3398 12.483C19.9528 11.4371 21.2172 10.5696 22.3974 10.3851C23.0157 10.2884 23.8579 10.3649 24.4833 10.5746Z" fill="#646464" fill-opacity="0.68"/>
</svg>
