<svg width="54" height="54" viewBox="0 0 54 54" fill="none" xmlns="http://www.w3.org/2000/svg">
<circle cx="27" cy="27" r="27" fill="white"/>
<path d="M42.0006 34.5912C41.0257 35.1763 40.3561 36.0985 39.5791 36.8968C39.044 37.4472 39.3983 38.2232 39.3519 38.8926C39.3104 39.5 39.1344 39.9561 38.4869 39.9958C37.7661 40.0404 37.3532 39.5148 37.4851 38.9149C37.8858 37.0753 36.625 36.1803 35.5841 35.1292C34.5627 34.0978 34.4723 33.7408 35.5817 32.8731C37.1943 31.6112 37.661 30.0642 37.4802 28.0933C37.3385 26.5562 37.4509 24.9968 37.4509 23.4349C36.0516 23.6894 35.352 24.4935 35.352 25.8471C35.352 26.9082 35.2762 27.9792 35.3715 29.0329C35.4839 30.27 34.939 31.0361 33.9641 31.6385C31.115 33.3987 27.9654 33.6565 24.7523 33.4979C22.6118 33.3913 20.5203 33.002 18.6119 31.9038C17.4024 31.2071 16.6376 30.3518 16.7989 28.7874C16.9357 27.4537 16.7989 26.0926 16.8404 24.7464C16.8575 24.1539 16.6547 23.8911 16.1001 23.7002C14.6926 23.2192 13.317 22.649 11.9218 22.1333C11.4429 21.9573 11.0177 21.759 11.0006 21.1565C10.981 20.4872 11.4502 20.2888 11.9731 20.0979C16.469 18.4617 20.9625 16.8155 25.4487 15.152C26.0156 14.9413 26.514 14.9537 27.0785 15.1644C31.5231 16.8106 35.9751 18.4344 40.4295 20.0558C40.9768 20.2566 41.5339 20.4376 41.5021 21.1739C41.4752 21.8383 40.9548 22.0639 40.4441 22.1755C39.5425 22.3738 39.2639 22.8498 39.3104 23.7944C39.4008 25.6686 39.3959 27.5553 39.3128 29.4296C39.2688 30.4559 39.5058 31.2394 40.3244 31.8591C40.923 32.3104 41.2895 33.0318 41.9957 33.364V34.5887L42.0006 34.5912ZM37.8076 21.1194C33.8688 19.669 30.2623 18.3476 26.6631 17.0089C26.233 16.8502 25.8836 17.0188 25.5073 17.1601C23.0614 18.065 20.6082 18.955 18.1648 19.8649C17.0994 20.2616 15.973 20.5219 14.8466 21.2012C18.524 22.587 22.0425 23.9134 25.5635 25.2422C25.9643 25.3935 26.3503 25.334 26.7413 25.1926C30.3185 23.8762 33.8957 22.5622 37.8101 21.1218L37.8076 21.1194ZM18.739 24.7092C18.739 26.1397 18.7976 27.4363 18.717 28.7255C18.6657 29.5585 19.02 29.9998 19.6846 30.3469C21.18 31.1253 22.8 31.4129 24.442 31.5592C27.2422 31.8071 29.9837 31.579 32.542 30.265C32.9452 30.0568 33.4803 29.9006 33.4827 29.2808C33.4901 27.8032 33.4827 26.3256 33.4827 24.7464C31.2006 25.572 29.087 26.3132 26.9929 27.1041C26.3528 27.347 25.7883 27.357 25.1433 27.1041C23.0614 26.2884 20.9552 25.5323 18.7365 24.7092H18.739ZM38.4527 35.3523C38.8974 34.849 39.5816 34.4177 39.5938 33.9689C39.606 33.5078 38.9414 32.7938 38.4332 32.8062C37.92 32.8186 37.2285 33.5152 37.253 33.9838C37.2774 34.4375 37.9885 34.8565 38.4527 35.3498V35.3523Z" fill="url(#paint0_linear_1_27)"/>
<defs>
<linearGradient id="paint0_linear_1_27" x1="26.5003" y1="15" x2="26.5003" y2="39.9984" gradientUnits="userSpaceOnUse">
<stop stop-color="#F4AF1C"/>
<stop offset="1" stop-color="#F4AF1C"/>
</linearGradient>
</defs>
</svg>
