<svg width="44" height="27" viewBox="0 0 44 27" fill="none" xmlns="http://www.w3.org/2000/svg">
<path id="Vector" d="M27.1585 26.9966H2.75084C1.83274 26.0977 0.918101 25.1989 0 24.2966C0 17.0955 0 9.89434 0 2.69322C1.02897 1.24411 2.14454 -0.0101907 4.19555 6.24216e-05C11.4641 0.0308218 18.7327 -0.00677301 26.0013 0.0239864C28.4992 0.0342396 30.1449 1.69525 30.2211 4.16626C30.2557 5.21208 30.228 6.26131 30.228 7.4746C30.8586 7.25587 31.2847 7.12258 31.697 6.96195C35.0368 5.65296 38.3662 4.31663 41.7129 3.02816C43.2893 2.42322 43.9822 2.87778 43.9857 4.52853C44.0065 10.4856 44.003 16.4427 43.9857 22.3998C43.9822 24.1701 43.324 24.5837 41.6055 23.9446C40.5904 23.5686 39.5961 23.138 38.5879 22.7449C35.8544 21.6786 33.1209 20.6191 30.2038 19.4844C30.2973 22.598 30.6646 25.6124 27.1515 27L27.1585 26.9966ZM15.1746 2.6317C11.7448 2.6317 8.31141 2.68297 4.88152 2.60778C3.27745 2.5736 2.61226 3.11018 2.62958 4.74385C2.68848 10.5847 2.68848 16.4256 2.62958 22.263C2.61226 23.9104 3.31556 24.3957 4.89885 24.382C11.7032 24.3308 18.511 24.3308 25.3153 24.382C26.9021 24.3923 27.5915 23.8899 27.5742 22.246C27.5118 16.4051 27.5118 10.5642 27.5742 4.72676C27.5915 3.06917 26.8709 2.58044 25.298 2.6112C21.9235 2.67955 18.5491 2.6317 15.1746 2.6317ZM41.2833 5.99815C39.0245 6.86967 36.9631 7.66258 34.9051 8.46232C31.5653 9.76333 30.0075 12.1899 30.2315 15.7421C30.2419 15.9095 30.1934 16.1043 30.2627 16.241C30.377 16.47 30.519 16.7708 30.7269 16.8528C34.1915 18.2336 37.6698 19.587 41.2833 20.9985V5.99815Z" fill="#515050"/>
</svg>
