<svg xmlns="http://www.w3.org/2000/svg" version="1.1" xmlns:xlink="http://www.w3.org/1999/xlink" width="512" height="512" x="0" y="0" viewBox="0 0 64 64" style="enable-background:new 0 0 512 512" xml:space="preserve" class=""><g><g data-name="Layer 2"><path d="M36.77 30.51a5 5 0 0 0-3.28-3.28h-.07A4.83 4.83 0 0 0 32 27a5 5 0 1 0 5 5 5.16 5.16 0 0 0-.2-1.41Zm-3.48-1.2.19.09.16.1a2.73 2.73 0 0 1 .47.37 2.51 2.51 0 0 1 .38.48.86.86 0 0 1 .1.16l.09.2A1 1 0 0 1 34 31a1 1 0 0 1-1-1 1 1 0 0 1 .29-.69ZM32 35a3 3 0 0 1-.87-5.85A2.7 2.7 0 0 0 31 30a3 3 0 0 0 3 3 2.7 2.7 0 0 0 .85-.13A3 3 0 0 1 32 35Z" fill="#f9b90d" opacity="1" data-original="#000000" class=""></path><path d="M32 24c-8.2 0-12.67 7.17-12.85 7.48a1 1 0 0 0 0 1C19.33 32.83 23.8 40 32 40s12.67-7.17 12.85-7.48a1 1 0 0 0 0-1C44.67 31.17 40.2 24 32 24Zm0 14c-5.86 0-9.65-4.45-10.79-6 1.14-1.55 4.93-6 10.79-6s9.65 4.45 10.79 6c-1.14 1.55-4.93 6-10.79 6Z" fill="#f9b90d" opacity="1" data-original="#000000" class=""></path><path d="M49.86 31.49C49.58 31 42.94 20 32 20S14.42 31 14.14 31.49l1.72 1C15.92 32.4 22.21 22 32 22s16.08 10.4 16.14 10.51Z" fill="#f9b90d" opacity="1" data-original="#000000" class=""></path><path d="M59.58 4.42C55.71.55 49.17-.11 41.18 2.55A49.2 49.2 0 0 0 32 6.81C25.55 3 19.16 1 14 1c-4 0-7.26 1.2-9.53 3.47S1 10 1 14c0 4.38 1.44 9.55 4.16 15l1.73-1C4.31 22.88 3 18 3 14c0-3.47 1-6.2 2.89-8.11S10.48 3 14 3c4.56 0 10.23 1.75 16 5a72.05 72.05 0 0 0-12.18 9.86C2.65 33.06-3.38 51.78 4.42 59.58 6.73 61.89 10 63 14 63c4.33 0 9.45-1.39 14.93-4.15L28 57.11c-9.67 4.87-17.95 5.26-22.16 1C2.53 54.86 2 49.05 4.45 41.82c2.49-7.47 7.75-15.48 14.82-22.55A70.55 70.55 0 0 1 32 9.13a69.74 69.74 0 0 1 12.73 10.14 70.47 70.47 0 0 1 10.13 12.78 71.46 71.46 0 0 1-10.13 12.68 79.79 79.79 0 0 1-4.4 4.06l.67-4.65-2-.28-1 7a1 1 0 0 0 .23.8A1 1 0 0 0 39 52h7v-2h-4c1.42-1.23 2.82-2.51 4.16-3.86A70.75 70.75 0 0 0 56 34c3.23 5.75 5.08 11.4 5.08 16.1 0 3.47-1 6.2-2.89 8.11s-4.64 2.89-8.11 2.89c-8.78 0-20.86-6.41-30.78-16.32a76.06 76.06 0 0 1-4.06-4.4l4.65.66.28-2-7-1a1 1 0 0 0-.8.23A1 1 0 0 0 12 39v7h2v-4c1.23 1.42 2.51 2.82 3.86 4.16 10.43 10.41 22.76 16.89 32.19 16.89 4 0 7.26-1.2 9.53-3.47s3.47-5.57 3.47-9.53c0-5.38-2.12-11.71-5.87-18.09 6.53-11.23 7.87-22.07 2.4-27.54ZM46.14 17.86A71.84 71.84 0 0 0 33.94 8a46.05 46.05 0 0 1 7.88-3.54c7.23-2.41 13-1.92 16.34 1.39C62.88 10.56 61.69 20 56 30.06a72.63 72.63 0 0 0-9.86-12.2Z" fill="#f9b90d" opacity="1" data-original="#000000" class=""></path></g></g></svg>