<svg width="38" height="38" viewBox="0 0 38 38" fill="none" xmlns="http://www.w3.org/2000/svg">
<path d="M16.6334 22.5595L22.8139 19L16.6334 15.4404V22.5595Z" fill="#646464" fill-opacity="0.68"/>
<path d="M19 0C8.50821 0 0 8.50821 0 19C0 29.4918 8.50821 38 19 38C29.4918 38 38 29.4918 38 19C38 8.50821 29.4918 0 19 0ZM30.872 19.0194C30.872 19.0194 30.872 22.8727 30.3833 24.7308C30.1094 25.7478 29.3074 26.5498 28.2903 26.8234C26.4324 27.3125 19 27.3125 19 27.3125C19 27.3125 11.5871 27.3125 9.70959 26.804C8.69257 26.5303 7.89064 25.7281 7.6167 24.7111C7.1276 22.8727 7.1276 19 7.1276 19C7.1276 19 7.1276 15.147 7.6167 13.2889C7.89042 12.2719 8.71202 11.4502 9.70967 11.1766C11.5676 10.6875 19 10.6875 19 10.6875C19 10.6875 26.4323 10.6875 28.2904 11.196C29.3074 11.4697 30.1094 12.2719 30.3833 13.2889C30.8918 15.147 30.8721 19.0194 30.8721 19.0194L30.872 19.0194Z" fill="#646464" fill-opacity="0.68"/>
</svg>
